<svg width="24" height="25" viewBox="0 0 24 25" fill="none" xmlns="http://www.w3.org/2000/svg">
<path d="M18.8634 2.55347H5.93688C4.31639 2.55347 3 3.87814 3 5.50882V18.0848C3 19.7155 4.32055 21.0401 5.93688 21.0401H18.8634C20.4839 21.0401 21.8002 19.7155 21.8002 18.0848V5.50882C21.8002 3.87814 20.4797 2.55347 18.8634 2.55347ZM3.82899 18.0848V5.50882C3.82899 4.33925 4.77462 3.39186 5.93271 3.39186H6.79921V20.2059H5.93271C4.77046 20.2059 3.82899 19.2544 3.82899 18.089V18.0848ZM20.9671 18.0848C20.9671 19.2544 20.0215 20.2017 18.8634 20.2017H7.63653V3.39186H18.8634C20.0256 3.39186 20.9671 4.34345 20.9671 5.50882V18.0848Z" fill="white"/>
<path d="M15.3432 12.1573C15.4307 12.1406 15.4974 12.0986 15.539 12.0274C15.5765 11.9603 15.5932 11.8807 15.5849 11.7926C15.5765 11.7004 15.5474 11.625 15.4932 11.5705C15.4391 11.5118 15.3641 11.4866 15.2808 11.4992C14.9225 11.5285 14.5684 11.5537 14.2268 11.5747C13.906 11.5956 13.5811 11.6124 13.2603 11.625V10.6943C13.452 10.6734 13.6311 10.6398 13.7894 10.5937C14.0519 10.5141 14.2726 10.3967 14.4476 10.25C14.6226 10.1033 14.7559 9.9272 14.8434 9.72598C14.9308 9.52477 14.9725 9.30259 14.9725 9.06784C14.9725 8.83309 14.9267 8.6193 14.8434 8.41808C14.7559 8.21687 14.6226 8.0408 14.4476 7.89408C14.2726 7.74736 14.0519 7.63418 13.7894 7.55034C13.5311 7.47069 13.2187 7.42877 12.8729 7.42877C12.5272 7.42877 12.2189 7.47069 11.9565 7.55034C11.694 7.62999 11.4732 7.74736 11.2983 7.89408C11.1233 8.0408 10.99 8.21687 10.9025 8.41808C10.815 8.6193 10.7692 8.83728 10.7692 9.06784C10.7692 9.2984 10.815 9.52477 10.9025 9.72598C10.99 9.9272 11.1233 10.1033 11.2983 10.25C11.4732 10.3967 11.694 10.5141 11.9565 10.5937C12.1189 10.644 12.3022 10.6776 12.5022 10.6985V11.6585C12.1772 11.6627 11.8481 11.6669 11.5274 11.6669H10.5193C10.4151 11.6669 10.3401 11.7046 10.2943 11.7801C10.2526 11.8471 10.2318 11.9226 10.2318 12.0022C10.2318 12.0903 10.2526 12.1699 10.2943 12.237C10.3401 12.3124 10.4151 12.346 10.5193 12.346C11.3524 12.346 12.1731 12.3334 12.9562 12.3041C13.7394 12.2747 14.5392 12.2286 15.3432 12.1615V12.1573ZM12.8729 10.0488C12.398 10.0488 12.0481 9.95235 11.8356 9.75952C11.619 9.56669 11.5149 9.34032 11.5149 9.05946C11.5149 8.77859 11.619 8.55642 11.8356 8.36359C12.0523 8.17495 12.4022 8.07853 12.8729 8.07853C13.3437 8.07853 13.6978 8.17495 13.9102 8.36359C14.1268 8.55223 14.231 8.77859 14.231 9.05946C14.231 9.34032 14.1268 9.56669 13.9102 9.75952C13.6936 9.95235 13.3437 10.0488 12.8729 10.0488Z" fill="white"/>
<path d="M17.8052 9.78464H16.8263V7.45809C16.8263 7.34071 16.7846 7.25687 16.7013 7.20238C16.5513 7.10596 16.3431 7.10596 16.1931 7.20238C16.1098 7.25268 16.0681 7.34071 16.0681 7.45809V13.2095C16.0681 13.3185 16.1098 13.4023 16.1931 13.4526C16.2681 13.4987 16.3514 13.5239 16.4472 13.5239C16.543 13.5239 16.6263 13.4987 16.7013 13.4526C16.7846 13.3981 16.8263 13.3185 16.8263 13.2095V10.4847H17.8052C17.9094 10.4847 17.9844 10.447 18.0302 10.3757C18.0719 10.3086 18.0927 10.229 18.0927 10.1326C18.0927 10.0445 18.0719 9.9649 18.0302 9.89783C17.9844 9.82237 17.9094 9.78884 17.8052 9.78884V9.78464Z" fill="white"/>
<path d="M16.7846 14.7857H12.3855C12.298 14.7857 12.2647 14.7521 12.2647 14.6641V13.1969C12.2647 13.0544 12.1939 12.9789 12.1356 12.9412C11.9814 12.8448 11.7732 12.8448 11.619 12.9412C11.5315 12.9957 11.4899 13.0795 11.4899 13.1969V14.7899C11.4899 15.0372 11.5399 15.2049 11.6398 15.3055C11.7398 15.4061 11.9148 15.4522 12.1647 15.4522H16.7846C16.8804 15.4522 16.9554 15.4187 17.0012 15.3474C17.0429 15.2845 17.0637 15.2091 17.0637 15.1169C17.0637 15.0246 17.0429 14.9492 17.0012 14.8863C16.9679 14.8402 16.9054 14.7815 16.7846 14.7815V14.7857Z" fill="white"/>
</svg>
