<svg width="24" height="24" viewBox="0 0 24 24" fill="none" xmlns="http://www.w3.org/2000/svg">
<path d="M12 24C18.6274 24 24 18.6274 24 12C24 5.37258 18.6274 0 12 0C5.37258 0 0 5.37258 0 12C0 18.6274 5.37258 24 12 24Z" fill="#64D972"/>
<path d="M11.1381 18.2588V16.6706H12.7815V18.2588H11.1381ZM11.257 14.7642V14.0473C11.257 12.7106 12.0386 11.9864 12.7951 11.2873C13.5015 10.6341 14.232 9.95792 14.232 8.81009C14.232 7.52766 13.3742 6.69809 12.0469 6.69809C10.633 6.69809 9.75963 7.60383 9.64068 9.18888H8.27789C8.39581 6.87757 9.80137 5.50122 12.0563 5.50122C14.3113 5.50122 15.6386 6.80661 15.6386 8.82783C15.6386 10.3377 14.8247 11.0953 14.0379 11.8278C13.3315 12.4863 12.6636 13.1071 12.6636 14.2017V14.7631H11.257V14.7642Z" fill="white"/>
</svg>
