<svg width="40" height="18" viewBox="0 0 40 18" fill="none" xmlns="http://www.w3.org/2000/svg">
<path d="M7.16504 12V5.99023H10.6846V6.52148H7.75439V8.72949H10.502V9.25244H7.75439V11.4688H10.7427V12H7.16504ZM12.0044 5.99023L13.8555 11.2363H13.9136L15.7646 5.99023H16.3872L14.2041 12H13.5649L11.3818 5.99023H12.0044ZM17.2588 12V5.99023H20.7783V6.52148H17.8481V8.72949H20.5957V9.25244H17.8481V11.4688H20.8364V12H17.2588ZM26.73 5.99023V12H26.1655L22.6709 7.04443H22.6211V12H22.0317V5.99023H22.6045L26.0991 10.9541H26.1489V5.99023H26.73ZM27.8008 6.52148V5.99023H32.1919V6.52148H30.2993V12H29.7017V6.52148H27.8008Z" fill="white"/>
<rect x="0.25" y="0.25" width="39.5" height="17.5" rx="1.75" stroke="white" stroke-width="0.5"/>
</svg>
