<svg width="24" height="25" viewBox="0 0 24 25" fill="none" xmlns="http://www.w3.org/2000/svg">
<path d="M18.8634 2.55347H5.93688C4.31639 2.55347 3 3.87814 3 5.50882V18.0848C3 19.7155 4.31639 21.0401 5.93688 21.0401H18.8634C20.4839 21.0401 21.8003 19.7155 21.8003 18.0848V5.50882C21.8003 3.87814 20.4839 2.55347 18.8634 2.55347ZM20.9671 18.0848C20.9671 19.2544 20.0215 20.2017 18.8634 20.2017H5.93688C4.77463 20.2017 3.83316 19.2502 3.83316 18.0848V5.50882C3.83316 4.33925 4.77879 3.39186 5.93688 3.39186H18.8634C20.0256 3.39186 20.9671 4.34345 20.9671 5.50882V18.0848Z" fill="white"/>
<path d="M16.4639 9.73852C15.8223 9.67983 14.9683 9.63791 13.9977 9.61276C13.6644 8.66537 13.3437 7.85212 13.0687 7.26105C13.0687 7.26105 13.0687 7.25686 13.0687 7.25267C12.9521 7.01372 12.6938 6.867 12.4022 6.867C12.1064 6.867 11.8523 7.01792 11.7357 7.26105C11.4607 7.84793 11.14 8.65698 10.8067 9.61276C9.84023 9.63372 8.98625 9.67983 8.33638 9.73852C8.08227 9.76367 7.86565 9.94812 7.77817 10.2164C7.67819 10.514 7.749 10.8368 7.95729 11.0338C8.51551 11.562 9.16538 12.1238 9.85274 12.6645C9.59446 13.57 9.39451 14.3665 9.23204 15.0288C9.16539 15.2971 9.26535 15.5696 9.5028 15.7414C9.64444 15.8421 9.81107 15.8966 9.97354 15.8966C10.111 15.8966 10.2485 15.8588 10.3651 15.7834C10.5651 15.6576 10.7734 15.5277 10.9858 15.3977C11.4316 15.121 11.9065 14.8318 12.4147 14.4964C12.9271 14.8318 13.402 15.1252 13.8519 15.4019C14.0644 15.5318 14.2685 15.6576 14.4643 15.7834C14.7226 15.9469 15.0683 15.9343 15.3266 15.7456C15.5599 15.5738 15.664 15.3013 15.5974 15.033C15.4307 14.3539 15.2266 13.5616 14.9725 12.6687C15.6599 12.128 16.3139 11.5662 16.8679 11.038C17.0721 10.841 17.1429 10.5098 17.0429 10.2164C16.9513 9.95231 16.7388 9.77205 16.4805 9.7469L16.4639 9.73852ZM14.4184 12.0232C14.1643 12.216 14.056 12.5513 14.1435 12.849C14.3643 13.6245 14.5476 14.3329 14.7017 14.9492C14.5601 14.8611 14.4143 14.7731 14.2685 14.6809C13.8144 14.4 13.3354 14.1066 12.823 13.7712C12.6938 13.6874 12.5438 13.6413 12.3939 13.6413C12.2439 13.6413 12.0981 13.6832 11.9731 13.767C11.4607 14.1024 10.9817 14.4 10.5318 14.6767C10.3818 14.7689 10.236 14.8569 10.0902 14.9492C10.2402 14.3413 10.4234 13.6329 10.6484 12.8448C10.7317 12.543 10.6193 12.2118 10.3776 12.0232C9.61946 11.4321 9.03624 10.9123 8.64882 10.5518C9.25286 10.5057 10.011 10.4679 10.8567 10.4512C11.1775 10.4428 11.4649 10.2332 11.5649 9.93135C11.8606 9.08038 12.1481 8.35097 12.3939 7.80182C12.6438 8.35935 12.9271 9.08876 13.2229 9.93135C13.327 10.2374 13.6144 10.447 13.931 10.4512C14.785 10.4721 15.5432 10.5057 16.1389 10.5518C15.7515 10.9123 15.1724 11.4279 14.4143 12.0232H14.4184Z" fill="white"/>
</svg>
