<svg width="24" height="25" viewBox="0 0 24 25" fill="none" xmlns="http://www.w3.org/2000/svg">
<path d="M4.82277 12.0236H8.66805C9.67099 12.0236 10.4908 11.2116 10.4908 10.209V6.38072C10.4908 5.38223 9.67515 4.56604 8.66805 4.56604H4.82277C3.81567 4.56604 3 5.37809 3 6.38072V10.209C3 11.2116 3.81567 12.0236 4.82277 12.0236ZM3.83231 6.38072C3.83231 5.83798 4.2776 5.39466 4.82277 5.39466H8.66805C9.21322 5.39466 9.65851 5.83798 9.65851 6.38072V10.209C9.65851 10.7517 9.21322 11.195 8.66805 11.195H4.82277C4.2776 11.195 3.83231 10.7517 3.83231 10.209V6.38072Z" fill="white"/>
<path d="M14.3111 12.0236H18.1564C19.1593 12.0236 19.9792 11.2116 19.9792 10.209V6.38072C19.9792 5.38223 19.1635 4.56604 18.1564 4.56604H14.3111C13.304 4.56604 12.4883 5.37809 12.4883 6.38072V10.209C12.4883 11.2116 13.304 12.0236 14.3111 12.0236ZM13.3207 6.38072C13.3207 5.83798 13.7659 5.39466 14.3111 5.39466H18.1564C18.7016 5.39466 19.1469 5.83798 19.1469 6.38072V10.209C19.1469 10.7517 18.7016 11.195 18.1564 11.195H14.3111C13.7659 11.195 13.3207 10.7517 13.3207 10.209V6.38072Z" fill="white"/>
<path d="M8.68887 14.2153H4.84358C3.84064 14.2153 3.02081 15.0274 3.02081 16.03V19.8583C3.02081 20.8567 3.83648 21.6729 4.84358 21.6729H8.68887C9.69597 21.6729 10.5116 20.8609 10.5116 19.8583V16.03C10.5116 15.0274 9.69597 14.2153 8.68887 14.2153ZM9.67932 19.8583C9.67932 20.401 9.23403 20.8443 8.68887 20.8443H4.84358C4.29842 20.8443 3.85313 20.401 3.85313 19.8583V16.03C3.85313 15.4873 4.29842 15.044 4.84358 15.044H8.68887C9.23403 15.044 9.67932 15.4873 9.67932 16.03V19.8583Z" fill="white"/>
<path d="M18.1772 14.2153H14.3319C13.3248 14.2153 12.5092 15.0274 12.5092 16.03V19.8583C12.5092 20.8567 13.3248 21.6729 14.3319 21.6729H18.1772C19.1801 21.6729 20 20.8609 20 19.8583V16.03C20 15.0274 19.1843 14.2153 18.1772 14.2153ZM19.1677 19.8583C19.1677 20.401 18.7224 20.8443 18.1772 20.8443H14.3319C13.7868 20.8443 13.3415 20.401 13.3415 19.8583V16.03C13.3415 15.4873 13.7868 15.044 14.3319 15.044H18.1772C18.7224 15.044 19.1677 15.4873 19.1677 16.03V19.8583Z" fill="white"/>
</svg>
