<svg width="24" height="25" viewBox="0 0 24 25" fill="none" xmlns="http://www.w3.org/2000/svg">
<path d="M11.7938 1.54718C6.39076 1.54718 2 5.96973 2 11.4026C2 16.8354 6.39492 21.2579 11.7938 21.2579C17.1927 21.2579 21.5876 16.8354 21.5876 11.4026C21.5876 5.96973 17.1927 1.54718 11.7938 1.54718ZM11.7938 20.4237C6.85316 20.4237 2.83316 16.3784 2.83316 11.4067C2.83316 6.43504 6.85316 2.38977 11.7938 2.38977C16.7344 2.38977 20.7544 6.43504 20.7544 11.4067C20.7544 16.3784 16.7344 20.4237 11.7938 20.4237Z" fill="white"/>
<path d="M8.70277 10.0611C8.93189 10.0611 9.11935 9.87244 9.11935 9.64188V8.12019C9.11935 7.88963 8.93189 7.70099 8.70277 7.70099C8.47365 7.70099 8.28619 7.88963 8.28619 8.12019V9.64188C8.28619 9.87244 8.47365 10.0611 8.70277 10.0611Z" fill="white"/>
<path d="M15.0098 10.0611C15.239 10.0611 15.4264 9.87244 15.4264 9.64188V8.12019C15.4264 7.88963 15.239 7.70099 15.0098 7.70099C14.7807 7.70099 14.5933 7.88963 14.5933 8.12019V9.64188C14.5933 9.87244 14.7807 10.0611 15.0098 10.0611Z" fill="white"/>
<path d="M15.8972 11.9894C15.6722 11.9349 15.4472 12.0733 15.3931 12.2954C14.9848 13.9638 13.506 15.1292 11.7938 15.1292C9.98588 15.1292 8.54451 14.0016 8.20292 12.3248C8.15709 12.0984 7.93631 11.9517 7.71136 11.9978C7.4864 12.0439 7.34059 12.2661 7.38641 12.4925C7.80716 14.5717 9.5818 15.9676 11.7938 15.9676C13.8892 15.9676 15.7014 14.5381 16.2013 12.4925C16.2554 12.2661 16.118 12.0397 15.8972 11.9852V11.9894Z" fill="white"/>
</svg>
