<svg width="24" height="25" viewBox="0 0 24 25" fill="none" xmlns="http://www.w3.org/2000/svg">
<path d="M19.0967 3.76894H16.9221V1.96638C16.9221 1.73582 16.7346 1.54718 16.5055 1.54718C16.2764 1.54718 16.0889 1.73582 16.0889 1.96638V3.76894H9.15705V1.96638C9.15705 1.73582 8.96959 1.54718 8.74047 1.54718C8.51135 1.54718 8.32389 1.73582 8.32389 1.96638V3.76894H5.74942C4.22891 3.76894 3 5.00976 3 6.53565V8.26694H21.8419V6.53565C21.8419 5.00557 20.6088 3.76894 19.0925 3.76894H19.0967Z" fill="white"/>
<path d="M3.00415 18.3486C3.00415 19.8787 4.23723 21.1154 5.75358 21.1154H19.0966C20.6172 21.1154 21.8461 19.8745 21.8461 18.3486V9.23944H3.00415V18.3486Z" fill="white"/>
</svg>
